{
    "asset" : {
        "generator" : "Khronos glTF Blender I/O v1.7.33",
        "version" : "2.0"
    },
    "scene" : 0,
    "scenes" : [
        {
            "name" : "Scene",
            "nodes" : [
                0
            ]
        }
    ],
    "nodes" : [
        {
            "mesh" : 0,
            "name" : "Cube"
        }
    ],
    "materials" : [
        {
            "doubleSided" : true,
            "name" : "Material",
            "pbrMetallicRoughness" : {
                "baseColorFactor" : [
                    0.800000011920929,
                    0.800000011920929,
                    0.800000011920929,
                    1
                ],
                "metallicFactor" : 0,
                "roughnessFactor" : 0.4000000059604645
            }
        },
        {
            "doubleSided" : true,
            "name" : "gamen",
            "pbrMetallicRoughness" : {
                "baseColorFactor" : [
                    0.009999999776482582,
                    0.009999999776482582,
                    0.009999999776482582,
                    1
                ],
                "metallicFactor" : 0,
                "roughnessFactor" : 0.5
            }
        },
        {
            "doubleSided" : true,
            "name" : "botan",
            "pbrMetallicRoughness" : {
                "baseColorFactor" : [
                    0.10000000149011612,
                    0.10000000149011612,
                    0.10000000149011612,
                    1
                ],
                "metallicFactor" : 0,
                "roughnessFactor" : 0.5
            }
        },
        {
            "doubleSided" : true,
            "name" : "supika",
            "pbrMetallicRoughness" : {
                "baseColorFactor" : [
                    0.10000000149011612,
                    0.10000000149011612,
                    0.10000000149011612,
                    1
                ],
                "metallicFactor" : 0,
                "roughnessFactor" : 0.5
            }
        }
    ],
    "meshes" : [
        {
            "name" : "Cube",
            "primitives" : [
                {
                    "attributes" : {
                        "POSITION" : 0,
                        "NORMAL" : 1,
                        "TEXCOORD_0" : 2
                    },
                    "indices" : 3,
                    "material" : 0
                },
                {
                    "attributes" : {
                        "POSITION" : 4,
                        "NORMAL" : 5,
                        "TEXCOORD_0" : 6
                    },
                    "indices" : 7,
                    "material" : 1
                },
                {
                    "attributes" : {
                        "POSITION" : 8,
                        "NORMAL" : 9,
                        "TEXCOORD_0" : 10
                    },
                    "indices" : 11,
                    "material" : 2
                },
                {
                    "attributes" : {
                        "POSITION" : 12,
                        "NORMAL" : 13,
                        "TEXCOORD_0" : 14
                    },
                    "indices" : 15,
                    "material" : 3
                }
            ]
        }
    ],
    "accessors" : [
        {
            "bufferView" : 0,
            "componentType" : 5126,
            "count" : 357,
            "max" : [
                1,
                0.10540926456451416,
                1.5217009782791138
            ],
            "min" : [
                -1,
                -0.10540926456451416,
                -1.5217009782791138
            ],
            "type" : "VEC3"
        },
        {
            "bufferView" : 1,
            "componentType" : 5126,
            "count" : 357,
            "type" : "VEC3"
        },
        {
            "bufferView" : 2,
            "componentType" : 5126,
            "count" : 357,
            "type" : "VEC2"
        },
        {
            "bufferView" : 3,
            "componentType" : 5123,
            "count" : 1320,
            "type" : "SCALAR"
        },
        {
            "bufferView" : 4,
            "componentType" : 5126,
            "count" : 4,
            "max" : [
                0.922606885433197,
                0.05685040354728699,
                1.0218453407287598
            ],
            "min" : [
                -0.922606885433197,
                0.05685040354728699,
                -1.2811338901519775
            ],
            "type" : "VEC3"
        },
        {
            "bufferView" : 5,
            "componentType" : 5126,
            "count" : 4,
            "type" : "VEC3"
        },
        {
            "bufferView" : 6,
            "componentType" : 5126,
            "count" : 4,
            "type" : "VEC2"
        },
        {
            "bufferView" : 7,
            "componentType" : 5123,
            "count" : 6,
            "type" : "SCALAR"
        },
        {
            "bufferView" : 8,
            "componentType" : 5126,
            "count" : 32,
            "max" : [
                0.17580634355545044,
                0.08330776542425156,
                1.4204165935516357
            ],
            "min" : [
                -0.17580604553222656,
                0.07872579246759415,
                1.0688042640686035
            ],
            "type" : "VEC3"
        },
        {
            "bufferView" : 9,
            "componentType" : 5126,
            "count" : 32,
            "type" : "VEC3"
        },
        {
            "bufferView" : 10,
            "componentType" : 5126,
            "count" : 32,
            "type" : "VEC2"
        },
        {
            "bufferView" : 11,
            "componentType" : 5123,
            "count" : 90,
            "type" : "SCALAR"
        },
        {
            "bufferView" : 12,
            "componentType" : 5126,
            "count" : 8,
            "max" : [
                0.13946011662483215,
                0.059759676456451416,
                1.480570912361145
            ],
            "min" : [
                -0.13946008682250977,
                -0.018393969163298607,
                -1.3919017314910889
            ],
            "type" : "VEC3"
        },
        {
            "bufferView" : 13,
            "componentType" : 5126,
            "count" : 8,
            "type" : "VEC3"
        },
        {
            "bufferView" : 14,
            "componentType" : 5126,
            "count" : 8,
            "type" : "VEC2"
        },
        {
            "bufferView" : 15,
            "componentType" : 5123,
            "count" : 12,
            "type" : "SCALAR"
        }
    ],
    "bufferViews" : [
        {
            "buffer" : 0,
            "byteLength" : 4284,
            "byteOffset" : 0
        },
        {
            "buffer" : 0,
            "byteLength" : 4284,
            "byteOffset" : 4284
        },
        {
            "buffer" : 0,
            "byteLength" : 2856,
            "byteOffset" : 8568
        },
        {
            "buffer" : 0,
            "byteLength" : 2640,
            "byteOffset" : 11424
        },
        {
            "buffer" : 0,
            "byteLength" : 48,
            "byteOffset" : 14064
        },
        {
            "buffer" : 0,
            "byteLength" : 48,
            "byteOffset" : 14112
        },
        {
            "buffer" : 0,
            "byteLength" : 32,
            "byteOffset" : 14160
        },
        {
            "buffer" : 0,
            "byteLength" : 12,
            "byteOffset" : 14192
        },
        {
            "buffer" : 0,
            "byteLength" : 384,
            "byteOffset" : 14204
        },
        {
            "buffer" : 0,
            "byteLength" : 384,
            "byteOffset" : 14588
        },
        {
            "buffer" : 0,
            "byteLength" : 256,
            "byteOffset" : 14972
        },
        {
            "buffer" : 0,
            "byteLength" : 180,
            "byteOffset" : 15228
        },
        {
            "buffer" : 0,
            "byteLength" : 96,
            "byteOffset" : 15408
        },
        {
            "buffer" : 0,
            "byteLength" : 96,
            "byteOffset" : 15504
        },
        {
            "buffer" : 0,
            "byteLength" : 64,
            "byteOffset" : 15600
        },
        {
            "buffer" : 0,
            "byteLength" : 24,
            "byteOffset" : 15664
        }
    ],
    "buffers" : [
        {
            "byteLength" : 15688,
            "uri" : "data:application/octet-stream;base64,"
        }
    ]
}
